<svg width="126" height="121" viewBox="0 0 126 121" fill="none" xmlns="http://www.w3.org/2000/svg">
<g filter="url(#filter0_d_1_2)">
<path d="M57.2937 4.56229C59.0898 -0.965571 66.9102 -0.965558 68.7063 4.56231L78.4915 34.6778C79.2947 37.15 81.5984 38.8237 84.1978 38.8237H115.863C121.675 38.8237 124.092 46.2614 119.39 49.6778L93.7721 68.2902C91.6691 69.8181 90.7892 72.5263 91.5924 74.9984L101.378 105.114C103.174 110.642 96.8468 115.239 92.1445 111.822L66.5267 93.2098C64.4238 91.6819 61.5762 91.6819 59.4733 93.2098L33.8555 111.822C29.1532 115.239 22.8263 110.642 24.6224 105.114L34.4076 74.9984C35.2108 72.5263 34.3309 69.8181 32.2279 68.2902L6.61014 49.6778C1.90786 46.2614 4.32452 38.8237 10.1369 38.8237H41.8022C44.4016 38.8237 46.7053 37.15 47.5085 34.6778L57.2937 4.56229Z" fill="black"/>
<path d="M60.1465 5.48926C61.0165 2.81168 64.7141 2.72795 65.7607 5.23828L65.8535 5.48926L75.6387 35.6045C76.8435 39.3127 80.2992 41.8232 84.1982 41.8232H115.863C118.678 41.8233 119.901 45.3138 117.837 47.085L117.627 47.251L92.0088 65.8633C88.9529 68.0835 87.6186 71.9653 88.6338 75.5771L88.7393 75.9258L98.5244 106.041C99.3943 108.718 96.4531 110.959 94.1309 109.544L93.9082 109.396L68.29 90.7822C65.2343 88.5623 61.13 88.4929 58.0088 90.5742L57.71 90.7822L32.0918 109.396C29.8142 111.05 26.7748 108.945 27.4033 106.299L27.4756 106.041L37.2607 75.9258C38.428 72.3333 37.2256 68.4083 34.2812 66.083L33.9912 65.8633L8.37305 47.251C6.02222 45.5427 7.23071 41.8234 10.1367 41.8232H41.8018C45.5789 41.8232 48.9403 39.4677 50.2422 35.9492L50.3613 35.6045L60.1465 5.48926Z" stroke="black" stroke-width="6"/>
</g>
<defs>
<filter id="filter0_d_1_2" x="0.125351" y="0.416405" width="125.749" height="120.579" filterUnits="userSpaceOnUse" color-interpolation-filters="sRGB">
<feFlood flood-opacity="0" result="BackgroundImageFix"/>
<feColorMatrix in="SourceAlpha" type="matrix" values="0 0 0 0 0 0 0 0 0 0 0 0 0 0 0 0 0 0 127 0" result="hardAlpha"/>
<feOffset dy="4"/>
<feGaussianBlur stdDeviation="2"/>
<feComposite in2="hardAlpha" operator="out"/>
<feColorMatrix type="matrix" values="0 0 0 0 0 0 0 0 0 0 0 0 0 0 0 0 0 0 0.25 0"/>
<feBlend mode="normal" in2="BackgroundImageFix" result="effect1_dropShadow_1_2"/>
<feBlend mode="normal" in="SourceGraphic" in2="effect1_dropShadow_1_2" result="shape"/>
</filter>
</defs>
</svg>
